<svg width="1096" height="575" viewBox="0 0 1096 575" fill="none" xmlns="http://www.w3.org/2000/svg">
<g id="contact 1">
<g id="cloud3">
<path id="Vector" opacity="0.1" d="M808.79 110.37C805.22 109.696 801.53 110.1 798.19 111.53C796.185 112.423 794.015 112.885 791.82 112.885C789.625 112.885 787.455 112.423 785.45 111.53C783.078 110.489 780.508 109.976 777.918 110.026C775.328 110.076 772.78 110.688 770.45 111.82C769.123 112.525 767.643 112.896 766.14 112.9C760.06 112.9 755.01 106.78 753.96 98.71C755.157 97.8181 756.174 96.7088 756.96 95.44C760.52 89.7 766.03 86.01 772.23 86.01C778.43 86.01 783.87 89.65 787.43 95.33C788.49 97.0461 789.977 98.4584 791.745 99.4293C793.513 100.4 795.503 100.897 797.52 100.87H797.68C802.57 100.82 806.76 104.7 808.79 110.37Z" fill="#B0AFB1"/>
<path id="Vector_2" opacity="0.1" d="M827.3 85.02L817.48 91.24L823.48 80.4C821.79 79.055 819.7 78.3124 817.54 78.29H817.38C816.71 78.2991 816.041 78.2489 815.38 78.14L812 80.25L813.43 77.65C811.067 76.8321 809.025 75.2843 807.6 73.23L801.6 77.01L805.36 70.17C801.88 65.99 797.18 63.43 792.02 63.43C785.82 63.43 780.31 67.11 776.74 72.85C775.688 74.5663 774.2 75.9736 772.428 76.9291C770.656 77.8845 768.662 78.354 766.65 78.29H766.32C759.48 78.29 753.94 86.04 753.94 95.6C753.94 105.16 759.48 112.92 766.32 112.92C767.822 112.91 769.3 112.54 770.63 111.84C772.959 110.705 775.507 110.09 778.097 110.039C780.687 109.987 783.258 110.499 785.63 111.54C787.633 112.44 789.804 112.905 792 112.905C794.196 112.905 796.367 112.44 798.37 111.54C800.723 110.522 803.268 110.022 805.831 110.072C808.395 110.122 810.918 110.721 813.23 111.83C814.545 112.518 816.006 112.882 817.49 112.89C824.33 112.89 829.87 105.13 829.87 95.57C829.911 91.8935 829.028 88.2656 827.3 85.02V85.02Z" fill="#CCCCCC"/>
</g>
<g id="cloud2">
<path id="Vector_3" opacity="0.1" d="M391.26 104.96C388.758 104.487 386.172 104.769 383.83 105.77C382.428 106.396 380.91 106.72 379.375 106.72C377.84 106.72 376.322 106.396 374.92 105.77C373.261 105.041 371.463 104.683 369.652 104.719C367.84 104.755 366.058 105.186 364.43 105.98C363.503 106.463 362.475 106.72 361.43 106.73C357.18 106.73 353.64 102.45 352.9 96.8C353.748 96.1782 354.471 95.4011 355.03 94.51C357.52 90.51 361.38 87.91 365.72 87.91C370.06 87.91 373.87 90.46 376.36 94.43C377.104 95.6317 378.145 96.6207 379.384 97.3006C380.623 97.9804 382.017 98.3282 383.43 98.31H383.54C386.9 98.29 389.83 101.01 391.26 104.96Z" fill="#B0AFB1"/>
<path id="Vector_4" opacity="0.1" d="M404.21 87.23L397.34 91.59L401.51 84C400.331 83.0564 398.87 82.5353 397.36 82.52H397.24C396.764 82.5285 396.289 82.4917 395.82 82.41L393.49 83.89L394.49 82.07C392.838 81.4955 391.411 80.4141 390.41 78.98L386.24 81.62L388.88 76.84C387.771 75.4084 386.358 74.2412 384.743 73.4232C383.127 72.6051 381.35 72.1565 379.54 72.11C375.2 72.11 371.34 74.69 368.85 78.71C368.112 79.9119 367.069 80.8974 365.828 81.5665C364.586 82.2356 363.19 82.5645 361.78 82.52H361.55C356.76 82.52 352.88 87.94 352.88 94.64C352.88 101.34 356.76 106.76 361.55 106.76C362.597 106.752 363.626 106.491 364.55 106C366.178 105.21 367.959 104.783 369.768 104.748C371.577 104.714 373.373 105.073 375.03 105.8C376.44 106.443 377.97 106.784 379.52 106.8C381.046 106.797 382.555 106.477 383.95 105.86C385.597 105.147 387.378 104.796 389.172 104.831C390.966 104.865 392.732 105.284 394.35 106.06C395.276 106.545 396.305 106.799 397.35 106.8C402.13 106.8 406.01 101.37 406.01 94.68C406.05 92.0843 405.431 89.5209 404.21 87.23V87.23Z" fill="#CCCCCC"/>
</g>
<g id="cloud1">
<path id="Vector_5" opacity="0.1" d="M269.59 183.37C272.089 182.898 274.672 183.18 277.01 184.18C278.413 184.807 279.933 185.13 281.47 185.13C283.007 185.13 284.527 184.807 285.93 184.18C287.589 183.452 289.386 183.094 291.197 183.128C293.008 183.163 294.79 183.59 296.42 184.38C297.344 184.872 298.373 185.133 299.42 185.14C303.67 185.14 307.21 180.85 307.94 175.2C307.092 174.58 306.373 173.803 305.82 172.91C303.32 168.91 299.46 166.32 295.13 166.32C290.8 166.32 286.98 168.86 284.48 172.84C283.737 174.04 282.697 175.028 281.46 175.708C280.223 176.388 278.831 176.736 277.42 176.72H277.31C273.94 176.74 271 179.45 269.59 183.37Z" fill="#B0AFB1"/>
<path id="Vector_6" opacity="0.1" d="M256.63 165.67L263.51 170.03L259.33 162.45C260.512 161.503 261.976 160.979 263.49 160.96H263.6C264.079 160.967 264.557 160.933 265.03 160.86L267.36 162.33L266.36 160.52C268.008 159.944 269.433 158.863 270.43 157.43L274.6 160.07L272 155.28C273.109 153.85 274.523 152.684 276.138 151.868C277.754 151.051 279.531 150.605 281.34 150.56C285.67 150.56 289.54 153.14 292.03 157.16C292.767 158.36 293.808 159.345 295.048 160.014C296.288 160.683 297.682 161.013 299.09 160.97H299.33C304.11 160.97 307.99 166.4 307.99 173.09C307.99 179.78 304.11 185.21 299.33 185.21C298.284 185.205 297.255 184.948 296.33 184.46C294.702 183.666 292.92 183.235 291.108 183.199C289.297 183.163 287.499 183.521 285.84 184.25C284.435 184.899 282.907 185.24 281.36 185.25C279.831 185.249 278.319 184.929 276.92 184.31C275.275 183.597 273.496 183.247 271.703 183.281C269.911 183.316 268.147 183.735 266.53 184.51C265.604 184.995 264.575 185.249 263.53 185.25C258.74 185.25 254.86 179.83 254.86 173.13C254.813 170.534 255.422 167.968 256.63 165.67V165.67Z" fill="#CCCCCC"/>
</g>
<g id="phone">
<path id="Vector_7" d="M779.73 338.14C834.936 338.14 879.69 293.386 879.69 238.18C879.69 182.974 834.936 138.22 779.73 138.22C724.524 138.22 679.77 182.974 679.77 238.18C679.77 293.386 724.524 338.14 779.73 338.14Z" fill="#3F3D56"/>
<path id="Vector_8" d="M822.64 263.96C819.16 260.48 810.79 255.23 806.64 253.27C801.85 250.97 800.09 251.01 796.7 253.46C793.88 255.46 792.05 257.39 788.81 256.68C785.57 255.97 779.15 251.13 772.94 244.94C766.73 238.75 761.91 232.37 761.22 229.08C760.53 225.79 762.43 224 764.45 221.18C766.89 217.79 766.96 216.03 764.64 211.24C762.64 207.09 757.45 198.74 753.94 195.24C750.43 191.74 749.67 192.51 747.75 193.24C745.774 194.068 743.876 195.072 742.08 196.24C738.6 198.57 736.65 200.51 735.28 203.43C733.91 206.35 732.36 211.77 740.33 225.96C746.209 236.815 753.656 246.745 762.43 255.43V255.43C771.144 264.224 781.108 271.684 792 277.57C806.18 285.57 811.61 283.98 814.53 282.62C817.45 281.26 819.39 279.33 821.71 275.82C822.88 274.025 823.884 272.127 824.71 270.15C825.37 268.23 826.15 267.45 822.64 263.96Z" fill="#666379"/>
<path id="Vector_9" opacity="0.1" d="M779.73 138.23C759.948 138.22 740.607 144.078 724.154 155.062C707.702 166.047 694.877 181.664 687.302 199.939C679.727 218.213 677.742 238.324 681.599 257.727C685.456 277.13 694.981 294.952 708.969 308.941C722.958 322.929 740.78 332.454 760.183 336.311C779.586 340.168 799.697 338.183 817.971 330.608C836.246 323.033 851.863 310.208 862.848 293.756C873.832 277.303 879.69 257.962 879.68 238.18C879.667 211.676 869.132 186.261 850.391 167.519C831.649 148.778 806.234 138.243 779.73 138.23V138.23ZM779.73 324.85C762.588 324.85 745.832 319.767 731.579 310.243C717.326 300.72 706.217 287.184 699.657 271.347C693.098 255.51 691.381 238.084 694.725 221.272C698.07 204.459 706.324 189.016 718.445 176.895C730.566 164.774 746.009 156.52 762.822 153.175C779.634 149.831 797.06 151.548 812.897 158.107C828.734 164.667 842.27 175.776 851.793 190.029C861.317 204.282 866.4 221.038 866.4 238.18C866.4 249.562 864.158 260.832 859.803 271.347C855.447 281.862 849.063 291.417 841.015 299.465C832.967 307.513 823.412 313.897 812.897 318.253C802.382 322.608 791.112 324.85 779.73 324.85Z" fill="black"/>
</g>
<g id="mail">
<path id="Vector_10" d="M550.08 489.97C605.286 489.97 650.04 445.216 650.04 390.01C650.04 334.804 605.286 290.05 550.08 290.05C494.874 290.05 450.12 334.804 450.12 390.01C450.12 445.216 494.874 489.97 550.08 489.97Z" fill="#3F3D56"/>
<path id="Vector_11" d="M606.93 359.81L577 390.26C576.947 390.31 576.906 390.371 576.877 390.438C576.848 390.505 576.834 390.577 576.834 390.65C576.834 390.723 576.848 390.795 576.877 390.862C576.906 390.929 576.947 390.99 577 391.04L598 413.37C598.502 413.876 598.844 414.519 598.982 415.219C599.12 415.919 599.049 416.644 598.776 417.303C598.504 417.962 598.043 418.526 597.451 418.924C596.859 419.322 596.163 419.536 595.45 419.54C594.49 419.538 593.57 419.157 592.89 418.48L572 396.23C571.893 396.125 571.75 396.066 571.6 396.066C571.45 396.066 571.307 396.125 571.2 396.23L566.11 401.37C564.026 403.501 561.537 405.194 558.789 406.35C556.042 407.506 553.091 408.101 550.11 408.1C547.073 408.086 544.069 407.467 541.274 406.279C538.478 405.09 535.948 403.357 533.83 401.18L528.94 396.18C528.833 396.075 528.69 396.016 528.54 396.016C528.39 396.016 528.247 396.075 528.14 396.18L507.3 418.38C506.965 418.716 506.566 418.982 506.128 419.164C505.69 419.346 505.22 419.44 504.745 419.44C504.27 419.44 503.8 419.346 503.362 419.164C502.924 418.982 502.525 418.716 502.19 418.38C501.853 418.045 501.585 417.647 501.403 417.209C501.22 416.77 501.126 416.3 501.126 415.825C501.126 415.35 501.22 414.88 501.403 414.441C501.585 414.003 501.853 413.605 502.19 413.27L523.11 390.99C523.203 390.881 523.254 390.743 523.254 390.6C523.254 390.457 523.203 390.319 523.11 390.21L493.18 359.76C493.103 359.683 493.005 359.63 492.898 359.609C492.791 359.587 492.68 359.598 492.579 359.64C492.478 359.682 492.392 359.752 492.332 359.843C492.272 359.934 492.24 360.041 492.24 360.15V421.08C492.248 423.435 493.187 425.692 494.853 427.357C496.518 429.023 498.775 429.962 501.13 429.97H599C601.355 429.962 603.612 429.023 605.277 427.357C606.943 425.692 607.882 423.435 607.89 421.08V360.2C607.895 360.087 607.865 359.974 607.803 359.879C607.742 359.783 607.653 359.709 607.548 359.666C607.442 359.624 607.327 359.615 607.216 359.64C607.105 359.666 607.006 359.725 606.93 359.81V359.81Z" fill="#666379"/>
<path id="Vector_12" d="M550.08 400.87C552.109 400.89 554.121 400.502 555.997 399.729C557.873 398.956 559.574 397.814 561 396.37L604.59 352C603.043 350.718 601.099 350.012 599.09 350H501.15C499.14 350.007 497.195 350.714 495.65 352L539.25 396.37C540.663 397.805 542.35 398.943 544.21 399.716C546.07 400.489 548.066 400.881 550.08 400.87V400.87Z" fill="#666379"/>
<path id="Vector_13" opacity="0.1" d="M548.82 290.06C529.038 290.05 509.697 295.908 493.244 306.892C476.792 317.877 463.967 333.494 456.392 351.769C448.817 370.043 446.832 390.154 450.689 409.557C454.546 428.96 464.071 446.782 478.059 460.771C492.048 474.759 509.871 484.284 529.273 488.141C548.676 491.998 568.787 490.013 587.061 482.438C605.336 474.863 620.953 462.038 631.938 445.586C642.922 429.133 648.78 409.792 648.77 390.01C648.757 363.506 638.222 338.091 619.481 319.349C600.739 300.608 575.324 290.073 548.82 290.06ZM548.82 476.68C531.678 476.68 514.922 471.597 500.669 462.074C486.416 452.55 475.307 439.014 468.747 423.177C462.188 407.34 460.471 389.914 463.815 373.102C467.16 356.289 475.414 340.846 487.535 328.725C499.656 316.604 515.099 308.35 531.912 305.005C548.724 301.661 566.15 303.378 581.987 309.937C597.824 316.497 611.36 327.606 620.883 341.859C630.407 356.112 635.49 372.868 635.49 390.01C635.49 412.996 626.359 435.041 610.105 451.295C593.851 467.549 571.806 476.68 548.82 476.68Z" fill="black"/>
</g>
<g id="location">
<path id="Vector_14" d="M312.85 415.32C368.056 415.32 412.81 370.566 412.81 315.36C412.81 260.154 368.056 215.4 312.85 215.4C257.644 215.4 212.89 260.154 212.89 315.36C212.89 370.566 257.644 415.32 312.85 415.32Z" fill="#3F3D56"/>
<path id="Vector_15" d="M312.85 267.53L273 359.47L276.72 363.19L312.86 347.25L349 363.19L352.72 359.47L312.85 267.53Z" fill="#666379"/>
<path id="Vector_16" opacity="0.1" d="M312.85 215.37C293.07 215.36 273.731 221.217 257.279 232.199C240.828 243.181 228.003 258.795 220.426 277.067C212.85 295.339 210.863 315.447 214.715 334.848C218.568 354.25 228.088 372.073 242.072 386.063C256.055 400.053 273.873 409.582 293.273 413.445C312.672 417.307 332.781 415.33 351.057 407.763C369.332 400.195 384.953 387.378 395.943 370.932C406.934 354.486 412.8 335.15 412.8 315.37C412.8 288.857 402.271 263.429 383.528 244.677C364.786 225.925 339.363 215.383 312.85 215.37V215.37ZM312.85 401.99C295.706 401.99 278.947 396.906 264.694 387.38C250.44 377.854 239.331 364.315 232.773 348.476C226.214 332.636 224.501 315.207 227.849 298.393C231.197 281.579 239.457 266.136 251.583 254.017C263.709 241.898 279.157 233.648 295.972 230.309C312.788 226.971 330.216 228.694 346.052 235.262C361.888 241.829 375.42 252.946 384.938 267.205C394.455 281.465 399.53 298.226 399.52 315.37C399.517 338.355 390.385 360.397 374.131 376.649C357.878 392.9 335.835 402.03 312.85 402.03V401.99Z" fill="black"/>
</g>
</g>
</svg>
