<svg width="860" height="768" viewBox="0 0 860 768" fill="none" xmlns="http://www.w3.org/2000/svg">
<g id="alert 1" clip-path="url(#clip0)">
<g id="shield">
<path id="main" d="M431.399 10.7463L161.697 176.717C161.697 176.717 161.697 519.031 431.399 705.748C701.101 519.031 701.101 176.717 701.101 176.717L431.399 10.7463Z" fill="#727184"/>
<path id="Vector" d="M378.106 349.868L419.349 387.674L477.777 301.75L498.399 318.935L419.349 422.044L360.921 356.742L378.106 349.868Z" fill="#3AD29F"/>
</g>
<path id="dot15" opacity="0.5" d="M165.29 47.9563C164.463 47.5962 163.797 46.9448 163.42 46.1259C163.042 45.307 162.979 44.3778 163.242 43.5153C163.285 43.3831 163.312 43.2463 163.322 43.1078C163.346 42.7126 163.242 42.3202 163.026 41.9887C162.809 41.6571 162.492 41.4041 162.121 41.2671C161.749 41.1301 161.344 41.1163 160.964 41.2279C160.584 41.3395 160.25 41.5704 160.012 41.8866C159.93 41.9987 159.861 42.1202 159.808 42.2484C159.448 43.0751 158.796 43.7406 157.977 44.1181C157.158 44.4957 156.229 44.5589 155.367 44.2959C155.235 44.2533 155.098 44.2265 154.959 44.216C154.564 44.1919 154.172 44.2958 153.84 44.5122C153.509 44.7286 153.256 45.046 153.119 45.4174C152.982 45.7889 152.968 46.1945 153.079 46.5744C153.191 46.9543 153.422 47.2881 153.738 47.5264C153.85 47.6084 153.972 47.6768 154.1 47.7303C154.927 48.0904 155.592 48.7418 155.97 49.5608C156.347 50.3797 156.41 51.3088 156.147 52.1713C156.105 52.3035 156.078 52.4403 156.067 52.5789C156.043 52.974 156.147 53.3664 156.364 53.698C156.58 54.0295 156.897 54.2825 157.269 54.4195C157.64 54.5565 158.046 54.5703 158.426 54.4587C158.806 54.3471 159.14 54.1162 159.378 53.8C159.46 53.6879 159.528 53.5664 159.582 53.4382C159.942 52.6115 160.593 51.946 161.412 51.5685C162.231 51.1909 163.16 51.1277 164.023 51.3908C164.155 51.4333 164.292 51.4601 164.43 51.4707C164.825 51.4947 165.218 51.3908 165.549 51.1744C165.881 50.958 166.134 50.6406 166.271 50.2692C166.408 49.8978 166.422 49.4921 166.31 49.1122C166.199 48.7324 165.968 48.3985 165.651 48.1602C165.539 48.0783 165.418 48.0098 165.29 47.9563Z" fill="#4D8AF0"/>
<path id="dot14" opacity="0.5" d="M19.2897 372.956C18.4629 372.596 17.7975 371.945 17.4199 371.126C17.0424 370.307 16.9791 369.378 17.2422 368.515C17.2848 368.383 17.3116 368.246 17.3221 368.108C17.3461 367.713 17.2423 367.32 17.0259 366.989C16.8095 366.657 16.4921 366.404 16.1206 366.267C15.7492 366.13 15.3435 366.116 14.9636 366.228C14.5838 366.339 14.25 366.57 14.0117 366.887C13.9297 366.999 13.8613 367.12 13.8077 367.248C13.4477 368.075 12.7962 368.741 11.9773 369.118C11.1584 369.496 10.2293 369.559 9.36674 369.296C9.23451 369.253 9.09772 369.226 8.95921 369.216C8.56404 369.192 8.17162 369.296 7.8401 369.512C7.50857 369.729 7.25556 370.046 7.11854 370.417C6.98152 370.789 6.96778 371.195 7.07936 371.574C7.19093 371.954 7.42189 372.288 7.73802 372.526C7.85018 372.608 7.97162 372.677 8.09982 372.73C8.92656 373.09 9.59204 373.742 9.96958 374.561C10.3471 375.38 10.4104 376.309 10.1473 377.171C10.1047 377.304 10.0779 377.44 10.0674 377.579C10.0433 377.974 10.1472 378.366 10.3636 378.698C10.58 379.03 10.8974 379.282 11.2689 379.42C11.6403 379.557 12.046 379.57 12.4258 379.459C12.8057 379.347 13.1395 379.116 13.3778 378.8C13.4598 378.688 13.5282 378.566 13.5818 378.438C13.9418 377.612 14.5933 376.946 15.4122 376.568C16.2311 376.191 17.1602 376.128 18.0227 376.391C18.155 376.433 18.2918 376.46 18.4303 376.471C18.8254 376.495 19.2179 376.391 19.5494 376.174C19.8809 375.958 20.1339 375.641 20.2709 375.269C20.4079 374.898 20.4217 374.492 20.3101 374.112C20.1985 373.732 19.9676 373.399 19.6515 373.16C19.5393 373.078 19.4179 373.01 19.2897 372.956Z" fill="#4D8AF0"/>
<path id="dot13" opacity="0.5" d="M748.399 260C751.713 260 754.399 257.314 754.399 254C754.399 250.686 751.713 248 748.399 248C745.085 248 742.399 250.686 742.399 254C742.399 257.314 745.085 260 748.399 260Z" fill="#F55F44"/>
<path id="dot12" opacity="0.5" d="M121.399 689C124.713 689 127.399 686.314 127.399 683C127.399 679.686 124.713 677 121.399 677C118.085 677 115.399 679.686 115.399 683C115.399 686.314 118.085 689 121.399 689Z" fill="#F55F44"/>
<path id="dot11" opacity="0.5" d="M850.399 491C853.713 491 856.399 488.314 856.399 485C856.399 481.686 853.713 479 850.399 479C847.085 479 844.399 481.686 844.399 485C844.399 488.314 847.085 491 850.399 491Z" fill="#F55F44"/>
<path id="dot10" opacity="0.5" d="M704.29 76.9563C703.463 76.5962 702.797 75.9448 702.42 75.1259C702.042 74.307 701.979 73.3778 702.242 72.5153C702.285 72.3831 702.312 72.2463 702.322 72.1078C702.346 71.7126 702.242 71.3202 702.026 70.9887C701.809 70.6571 701.492 70.4041 701.121 70.2671C700.749 70.1301 700.343 70.1163 699.964 70.2279C699.584 70.3395 699.25 70.5704 699.012 70.8866C698.93 70.9987 698.861 71.1202 698.808 71.2484C698.448 72.0751 697.796 72.7406 696.977 73.1181C696.158 73.4957 695.229 73.5589 694.367 73.2959C694.235 73.2533 694.098 73.2265 693.959 73.216C693.564 73.1919 693.172 73.2958 692.84 73.5122C692.509 73.7286 692.256 74.046 692.119 74.4174C691.981 74.7889 691.968 75.1945 692.079 75.5744C692.191 75.9543 692.422 76.2881 692.738 76.5264C692.85 76.6084 692.972 76.6768 693.1 76.7303C693.927 77.0904 694.592 77.7419 694.97 78.5608C695.347 79.3797 695.41 80.3088 695.147 81.1713C695.105 81.3035 695.078 81.4403 695.067 81.5789C695.043 81.974 695.147 82.3664 695.364 82.698C695.58 83.0295 695.897 83.2825 696.269 83.4195C696.64 83.5565 697.046 83.5703 697.426 83.4587C697.806 83.3471 698.139 83.1162 698.378 82.8C698.46 82.6879 698.528 82.5664 698.582 82.4382C698.942 81.6115 699.593 80.946 700.412 80.5685C701.231 80.1909 702.16 80.1277 703.023 80.3908C703.155 80.4333 703.292 80.4601 703.43 80.4707C703.825 80.4947 704.218 80.3908 704.549 80.1744C704.881 79.958 705.134 79.6406 705.271 79.2692C705.408 78.8978 705.422 78.4921 705.31 78.1122C705.199 77.7324 704.968 77.3985 704.651 77.1602C704.539 77.0782 704.418 77.0098 704.29 76.9563Z" fill="#4D8AF0"/>
<path id="dot9" opacity="0.5" d="M804.29 704.956C803.463 704.596 802.797 703.945 802.42 703.126C802.042 702.307 801.979 701.378 802.242 700.515C802.285 700.383 802.312 700.246 802.322 700.108C802.346 699.713 802.242 699.32 802.026 698.989C801.809 698.657 801.492 698.404 801.121 698.267C800.749 698.13 800.343 698.116 799.964 698.228C799.584 698.34 799.25 698.57 799.012 698.887C798.93 698.999 798.861 699.12 798.808 699.248C798.448 700.075 797.796 700.741 796.977 701.118C796.158 701.496 795.229 701.559 794.367 701.296C794.235 701.253 794.098 701.226 793.959 701.216C793.564 701.192 793.172 701.296 792.84 701.512C792.509 701.729 792.256 702.046 792.119 702.417C791.981 702.789 791.968 703.195 792.079 703.574C792.191 703.954 792.422 704.288 792.738 704.526C792.85 704.608 792.972 704.677 793.1 704.73C793.927 705.09 794.592 705.742 794.97 706.561C795.347 707.38 795.41 708.309 795.147 709.171C795.105 709.304 795.078 709.44 795.067 709.579C795.043 709.974 795.147 710.366 795.364 710.698C795.58 711.03 795.897 711.283 796.269 711.42C796.64 711.557 797.046 711.57 797.426 711.459C797.806 711.347 798.139 711.116 798.378 710.8C798.46 710.688 798.528 710.566 798.582 710.438C798.942 709.612 799.593 708.946 800.412 708.568C801.231 708.191 802.16 708.128 803.023 708.391C803.155 708.433 803.292 708.46 803.43 708.471C803.825 708.495 804.218 708.391 804.549 708.174C804.881 707.958 805.134 707.641 805.271 707.269C805.408 706.898 805.422 706.492 805.31 706.112C805.199 705.732 804.968 705.399 804.651 705.16C804.539 705.078 804.418 705.01 804.29 704.956Z" fill="#4D8AF0"/>
<path id="dot8" opacity="0.5" d="M12.2897 182.956C11.4629 182.596 10.7975 181.945 10.4199 181.126C10.0424 180.307 9.97912 179.378 10.2422 178.515C10.2848 178.383 10.3116 178.246 10.3221 178.108C10.3461 177.713 10.2423 177.32 10.0259 176.989C9.80949 176.657 9.49207 176.404 9.12063 176.267C8.7492 176.13 8.3435 176.116 7.96365 176.228C7.58379 176.339 7.24999 176.57 7.01165 176.887C6.92969 176.999 6.86125 177.12 6.80775 177.248C6.44769 178.075 5.79619 178.741 4.97729 179.118C4.15839 179.496 3.22925 179.559 2.36674 179.296C2.23451 179.253 2.09772 179.226 1.95921 179.216C1.56404 179.192 1.17162 179.296 0.840098 179.512C0.508571 179.729 0.255559 180.046 0.11854 180.417C-0.0184786 180.789 -0.0322193 181.195 0.0793555 181.574C0.19093 181.954 0.42189 182.288 0.738016 182.526C0.850175 182.608 0.971616 182.677 1.09982 182.73C1.92656 183.09 2.59204 183.742 2.96958 184.561C3.34713 185.38 3.41037 186.309 3.14729 187.171C3.10472 187.304 3.0779 187.44 3.06739 187.579C3.04334 187.974 3.1472 188.366 3.3636 188.698C3.58 189.029 3.89742 189.283 4.26885 189.42C4.64029 189.557 5.04598 189.57 5.42584 189.459C5.80569 189.347 6.13951 189.116 6.37785 188.8C6.45981 188.688 6.52825 188.566 6.58175 188.438C6.94181 187.612 7.59329 186.946 8.4122 186.568C9.2311 186.191 10.1602 186.128 11.0227 186.391C11.155 186.433 11.2918 186.46 11.4303 186.471C11.8254 186.495 12.2179 186.391 12.5494 186.174C12.8809 185.958 13.1339 185.641 13.2709 185.269C13.4079 184.898 13.4217 184.492 13.3101 184.112C13.1985 183.732 12.9676 183.399 12.6515 183.16C12.5393 183.078 12.4179 183.01 12.2897 182.956Z" fill="#4D8AF0"/>
<path id="dot7" opacity="0.5" d="M79.3992 290C82.7129 290 85.3992 287.314 85.3992 284C85.3992 280.686 82.7129 278 79.3992 278C76.0855 278 73.3992 280.686 73.3992 284C73.3992 287.314 76.0855 290 79.3992 290Z" fill="#47E6B1"/>
<path id="dot6" opacity="0.5" d="M853.399 338C856.713 338 859.399 335.314 859.399 332C859.399 328.686 856.713 326 853.399 326C850.085 326 847.399 328.686 847.399 332C847.399 335.314 850.085 338 853.399 338Z" fill="#47E6B1"/>
<g id="dot5" opacity="0.5">
<path id="Vector_2" opacity="0.5" d="M586.399 0H583.399V17H586.399V0Z" fill="#47E6B1"/>
<path id="Vector_3" opacity="0.5" d="M593.399 10V7L576.399 7V10H593.399Z" fill="#47E6B1"/>
</g>
<g id="dot4" opacity="0.5">
<path id="Vector_4" opacity="0.5" d="M597.399 666H594.399V683H597.399V666Z" fill="#47E6B1"/>
<path id="Vector_5" opacity="0.5" d="M604.399 676V673H587.399V676H604.399Z" fill="#47E6B1"/>
</g>
<g id="dot3" opacity="0.5">
<path id="Vector_6" opacity="0.5" d="M29.3992 702H26.3992V719H29.3992V702Z" fill="#47E6B1"/>
<path id="Vector_7" opacity="0.5" d="M36.3992 712V709H19.3992V712H36.3992Z" fill="#47E6B1"/>
</g>
<g id="dot2" opacity="0.5">
<path id="Vector_8" opacity="0.5" d="M712.399 396H709.399V413H712.399V396Z" fill="#47E6B1"/>
<path id="Vector_9" opacity="0.5" d="M719.399 406V403H702.399V406H719.399Z" fill="#47E6B1"/>
</g>
<path id="dot1" opacity="0.5" d="M795.606 123.018L802.049 128.924L811.177 115.5L814.399 118.185L802.049 134.294L792.921 124.092L795.606 123.018Z" fill="#47E6B1"/>
<g id="person">
<path id="Vector_10" d="M611.669 239.272L589.444 240.134L590.552 268.709L612.777 267.848L611.669 239.272Z" fill="#A3A3B1"/>
<path id="Vector_11" d="M511.41 339.35C511.41 339.35 480.631 324.645 481.123 337.345C481.616 350.045 512.148 358.401 512.148 358.401L511.41 339.35Z" fill="#FFB9B9"/>
<path id="Vector_12" d="M528.296 446.811C528.296 446.811 513.775 482.353 508.41 507.999C503.045 533.646 494.874 568.942 505.384 593.973C515.894 619.004 545.776 692.572 546.084 700.51C546.392 708.448 543.524 716.509 549.875 716.262C556.225 716.016 590.781 705.137 592.184 700.312C593.587 695.488 580.394 683.28 580.394 683.28L547.817 581.198L581.806 514.693L606.323 613.908L611.125 737.736C611.125 737.736 634.692 730.463 638.113 736.69C638.113 736.69 648.672 721.971 650.013 715.559C651.354 709.147 645.026 586.968 645.026 586.968C645.026 586.968 666.659 447.805 649.196 448.482C631.733 449.16 563.332 407.294 528.296 446.811Z" fill="#A3A3B1"/>
<path id="Vector_13" d="M549.628 709.912C549.628 709.912 533.52 745.516 531.994 747.165C530.468 748.814 519.971 765.12 527.908 764.812C535.846 764.504 554.589 755.828 568.384 742.574C582.18 729.319 600.368 706.355 598.719 704.829C597.07 703.303 585.773 698.971 585.773 698.971L549.628 709.912Z" fill="#575A89"/>
<path id="Vector_14" d="M613.992 729.675C613.992 729.675 613.02 745.612 610.091 752.086C607.162 758.559 607.532 768.084 615.469 767.777C623.407 767.469 643.922 763.493 643.922 763.493C643.922 763.493 645.14 753.906 643.491 752.38C641.842 750.854 634.815 733.638 637.805 728.752C640.795 723.866 613.992 729.675 613.992 729.675Z" fill="#575A89"/>
<path id="Vector_15" d="M625.735 212.492C625.735 212.492 642.657 238.865 649.254 244.969C655.85 251.073 637.292 264.512 637.292 264.512L604.077 268.98C604.077 268.98 604.495 238.755 602.784 235.641C601.073 232.528 625.735 212.492 625.735 212.492Z" fill="#FFB9B9"/>
<path id="Vector_16" d="M596.865 247.001C596.865 247.001 603.707 259.455 610.057 259.208C616.408 258.962 649.254 244.969 650.656 240.145C652.059 235.321 661.536 274.701 661.536 274.701L581.165 416.142L561.56 402.593L571.059 319.548L578.861 274.727L596.865 247.001Z" fill="#A3A3B1"/>
<path id="Vector_17" d="M653.621 373.584C650.415 380.291 648.413 387.285 648.69 394.444C648.703 394.762 648.715 395.079 648.743 395.396C649.504 410.089 654.917 427.083 656.858 439.441C658.268 448.305 657.867 454.776 652.679 456.297C640.101 459.965 654.513 462.586 605.853 478.782C557.193 494.978 548.701 480.998 548.578 477.823C548.455 474.648 555.469 450.527 553.82 449.001C552.171 447.475 530.746 468.975 524.272 466.046C517.799 463.117 523.534 446.996 523.534 446.996C523.534 446.996 538.116 413.042 537.808 405.104C537.501 397.166 559.898 359.729 559.898 359.729L575.132 260.563C575.132 260.563 580.989 247.616 588.865 245.721C596.742 243.825 603.276 248.342 603.276 248.342L590.097 277.472L576.191 328.889L578.517 347.878C578.517 347.878 594.688 313.862 605.308 300.731C615.928 287.599 638.572 256.513 638.572 256.513C638.572 256.513 643.858 238.675 639.867 233.345C635.876 227.998 656.514 227.198 665.314 249.116C669.978 260.732 677.55 278.055 682.293 294.184C686.52 308.472 688.516 321.83 684.329 329.465C677.929 341.129 661.829 356.46 653.621 373.584Z" fill="#575A89"/>
<path id="Vector_18" opacity="0.1" d="M684.329 329.465C677.929 341.129 661.829 356.46 653.621 373.584C651.477 365.861 648.862 357.869 648.862 357.869C648.862 357.869 638.831 304.201 668.502 290.331C673.418 289.855 678.335 291.229 682.293 294.184C686.52 308.472 688.516 321.83 684.329 329.465Z" fill="black"/>
<path id="Vector_19" d="M566.543 326.083L541.388 333.418L506.462 334.772L502.869 365.12L560.267 369.254C560.267 369.254 574.604 328.95 566.543 326.083Z" fill="#575A89"/>
<path id="Vector_20" d="M607.561 428.123C607.561 428.123 573.909 433.706 581.59 443.832C589.27 453.959 619.082 443.313 619.082 443.313L607.561 428.123Z" fill="#FFB9B9"/>
<path id="Vector_21" opacity="0.1" d="M648.743 395.396C649.504 410.089 654.917 427.083 656.858 439.441C646.138 449.587 635.944 458.536 632.102 458.685C624.165 458.993 611.403 457.898 606.702 459.67C602 461.442 599.243 431.34 599.243 431.34C599.243 431.34 602.049 421.692 614.565 416.437C623.012 412.882 639.206 403.239 648.743 395.396Z" fill="black"/>
<path id="Vector_22" d="M668.133 280.805C668.133 280.805 694.998 276.584 693.546 321.158C692.095 365.732 696.378 394.185 685.573 402.554C674.768 410.922 639.671 448.852 631.733 449.16C623.795 449.467 611.033 448.372 606.332 450.145C601.631 451.917 598.874 421.815 598.874 421.815C598.874 421.815 601.68 412.167 614.195 406.912C626.711 401.656 656.197 383.024 655.951 376.674C655.705 370.323 648.492 348.344 648.492 348.344C648.492 348.344 638.462 294.675 668.133 280.805Z" fill="#575A89"/>
<path id="Vector_23" d="M602.045 251.543C621.349 251.543 636.997 235.895 636.997 216.591C636.997 197.287 621.349 181.639 602.045 181.639C582.742 181.639 567.093 197.287 567.093 216.591C567.093 235.895 582.742 251.543 602.045 251.543Z" fill="#FFB9B9"/>
<path id="Vector_24" d="M578.511 166.494C577.668 167.221 576.658 167.727 575.572 167.969C575.027 168.066 574.465 167.944 574.01 167.628C573.555 167.313 573.243 166.83 573.142 166.286C572.342 167.944 571.44 169.711 569.807 170.562C568.175 171.413 565.65 170.7 565.415 168.874C565.176 170.26 564.563 171.555 563.641 172.618C562.628 173.584 560.791 173.827 559.907 172.743C560.622 176.65 560.18 180.668 560.405 184.634C560.629 188.6 561.687 192.805 564.683 195.413C569.053 199.216 575.624 198.277 581.373 197.557C582.242 197.374 583.144 197.424 583.988 197.7C586.14 198.617 586.043 201.613 586.072 203.952C586.247 208.057 587.872 211.967 590.657 214.987C593.442 218.007 597.207 219.943 601.284 220.45C603.565 220.802 605.893 220.234 607.756 218.87C609.388 217.487 610.222 215.232 612.092 214.193C615.134 212.503 618.824 214.968 621.048 217.645C623.272 220.321 625.464 223.614 628.909 224.104C633.466 224.752 636.937 220.108 638.64 215.832C640.989 209.838 642.115 203.435 641.95 197C641.786 190.565 640.334 184.227 637.682 178.362C628.167 157.621 595.663 154.34 578.511 166.494Z" fill="#2F2E41"/>
</g>
</g>
<defs>
<clipPath id="clip0">
<rect width="859.399" height="767.784" fill="white"/>
</clipPath>
</defs>
</svg>
